<svg width="30" height="29" viewBox="0 0 30 29" fill="none" xmlns="http://www.w3.org/2000/svg">
<path d="M2.5 28.2456C2.5 28.2456 0 28.2456 0 25.8918C0 23.538 2.5 16.4766 15 16.4766C27.5 16.4766 30 23.538 30 25.8918C30 28.2456 27.5 28.2456 27.5 28.2456H2.5ZM15 14.1228C16.9891 14.1228 18.8968 13.3788 20.3033 12.0546C21.7098 10.7303 22.5 8.9342 22.5 7.0614C22.5 5.1886 21.7098 3.39251 20.3033 2.06824C18.8968 0.743967 16.9891 0 15 0C13.0109 0 11.1032 0.743967 9.6967 2.06824C8.29018 3.39251 7.5 5.1886 7.5 7.0614C7.5 8.9342 8.29018 10.7303 9.6967 12.0546C11.1032 13.3788 13.0109 14.1228 15 14.1228Z" fill="#FF3114"/>
</svg>
