<svg width="32" height="31" viewBox="0 0 32 31" fill="none" xmlns="http://www.w3.org/2000/svg">
<path d="M13.3672 25.8616C16.333 25.861 19.2133 24.9286 21.5495 23.2128L28.8948 30.111L31.2574 27.8922L23.9122 20.9939C25.7401 18.7997 26.7336 16.094 26.7343 13.308C26.7343 6.38626 20.7375 0.754395 13.3672 0.754395C5.99684 0.754395 0 6.38626 0 13.308C0 20.2297 5.99684 25.8616 13.3672 25.8616ZM13.3672 3.8928C18.8962 3.8928 23.3925 8.11552 23.3925 13.308C23.3925 18.5005 18.8962 22.7232 13.3672 22.7232C7.83817 22.7232 3.34179 18.5005 3.34179 13.308C3.34179 8.11552 7.83817 3.8928 13.3672 3.8928Z" fill="#FF3114"/>
</svg>
